<?xml version="1.0" encoding="utf-8"?>
<!-- Generator: Adobe Illustrator 16.0.0, SVG Export Plug-In . SVG Version: 6.00 Build 0)  -->
<!DOCTYPE svg PUBLIC "-//W3C//DTD SVG 1.1//EN" "http://www.w3.org/Graphics/SVG/1.1/DTD/svg11.dtd">
<svg version="1.1"
	 id="svg2" xmlns:dc="http://purl.org/dc/elements/1.1/" xmlns:cc="http://creativecommons.org/ns#" xmlns:rdf="http://www.w3.org/1999/02/22-rdf-syntax-ns#" xmlns:svg="http://www.w3.org/2000/svg" xmlns:sodipodi="http://sodipodi.sourceforge.net/DTD/sodipodi-0.dtd" xmlns:inkscape="http://www.inkscape.org/namespaces/inkscape" inkscape:export-ydpi="90" inkscape:export-xdpi="90" inkscape:export-filename="/Volumes/Data/Projets/Recherche/ter-modeles/rapport/lego.png" sodipodi:docname="lego.svg" inkscape:version="0.91 r13725"
	 xmlns="http://www.w3.org/2000/svg" xmlns:xlink="http://www.w3.org/1999/xlink" x="0px" y="0px" width="595.275px"
	 height="841.891px" viewBox="0 0 595.275 841.891" enable-background="new 0 0 595.275 841.891" xml:space="preserve">
<sodipodi:namedview  showgrid="true" inkscape:cy="942.73802" inkscape:cx="80.684023" inkscape:zoom="3.2891774" borderopacity="1.0" bordercolor="#666666" pagecolor="#ffffff" id="base" inkscape:window-maximized="1" inkscape:window-y="0" inkscape:window-x="0" inkscape:window-height="800" inkscape:window-width="1440" inkscape:pageshadow="2" inkscape:current-layer="layer1" inkscape:document-units="px" inkscape:pageopacity="0.0">
	<inkscape:grid  type="xygrid" id="grid4136"></inkscape:grid>
</sodipodi:namedview>
<g id="layer1" inkscape:label="Calque 1" inkscape:groupmode="layer">
	<path id="path4138" inkscape:connector-curvature="0" fill="none" stroke="#000000" d="M7.798,5.849v40h24v-24h-12v-8h12v-8H7.798"
		/>
	<path id="path4140" inkscape:connector-curvature="0" fill="none" stroke="#000000" d="M47.798,5.849v12h-12v8h12v20h12v-40H47.798
		"/>
	<path id="path4142" inkscape:connector-curvature="0" fill="none" stroke="#000000" d="M87.879,45.647v-40h36v40H87.879z"/>
	<path id="path4144" inkscape:connector-curvature="0" fill="none" stroke="#000000" d="M111.879,5.647v8h-12v8h12v24"/>
	<path id="path4138-8" inkscape:connector-curvature="0" fill="none" stroke="#000000" d="M87.923,57.364v40h24v-24h-12v-8h12v-8
		H87.923"/>
	<path id="path4140-7" inkscape:connector-curvature="0" fill="none" stroke="#000000" d="M127.317,57.566v12h-12v8h12v20h12v-40
		H127.317"/>
	<path id="path4222" inkscape:connector-curvature="0" fill="none" stroke="#000000" d="M111.436,57.482h16v12h-12v8h12v20h-16"/>
	<path id="path4245" inkscape:connector-curvature="0" fill="none" stroke="#000000" d="M8,109.889v40h24v-8h8v-12H20v-16h12v-4H8"
		/>
	<path id="path4247" inkscape:connector-curvature="0" fill="none" stroke="#000000" d="M48.567,110.294v4h-8v8h16v20h-8v8h20v-40
		H48.567z"/>
	<path id="path4249" inkscape:connector-curvature="0" fill="none" stroke="#000000" d="M95.568,109.486v40h24v-8h8v-12h-20v-16h12
		v-4H95.568"/>
	<path id="path4251" inkscape:connector-curvature="0" fill="none" stroke="#000000" d="M119.77,109.486v4h-8v8h16v20h-8v8h20v-40
		H119.77z"/>
	<path id="path4253" inkscape:connector-curvature="0" fill="#FF9800" d="M8.323,25.843V6.346h11.516h11.516v3.535v3.535h-6.062
		h-6.061v4.445v4.444h6.061h6.062v11.516v11.516H19.839H8.323V25.843L8.323,25.843z"/>
	<path id="path4255" inkscape:connector-curvature="0" fill="#FF9800" d="M88.327,25.64V6.144h11.516h11.516v3.535v3.536h-5.96
		h-5.96v4.444v4.444h5.96h5.96V33.62v11.517H99.843H88.327V25.64z"/>
	<path id="path4257" inkscape:connector-curvature="0" fill="#FF9800" d="M88.365,77.356V57.86H99.88h11.516v3.535v3.536h-5.96
		h-5.96v4.444v4.444h5.96h5.96v11.516v11.517H99.88H88.365V77.356z"/>
	<path id="path4259" inkscape:connector-curvature="0" fill="#FF9800" d="M8.525,129.887v-19.495H20.04h11.517v1.515v1.516h-6.062
		h-6.061v8.485v8.485h10h10.001v5.454v5.455h-3.939h-3.939v4.041v4.04H20.04H8.525V129.887L8.525,129.887z"/>
	<path id="path4261" inkscape:connector-curvature="0" fill="#FF9800" d="M96.093,129.484v-19.496h11.516h11.516v1.515v1.516h-6.062
		h-6.061v8.485v8.485h10.001h10v5.455v5.454h-3.939h-3.939v4.041v4.04h-11.516H96.093V129.484z"/>
	<path id="path4263" inkscape:connector-curvature="0" fill="#536DFE" d="M127.962,87.074V77.073h-6.061h-6.062v-3.535v-3.536h6.062
		h6.061v-5.96v-5.96h5.455h5.455v19.496v19.496h-5.455h-5.455V87.074L127.962,87.074z"/>
	<path id="path4265" inkscape:connector-curvature="0" fill="#536DFE" d="M112.368,33.135V21.115h-5.96h-5.96v-3.536v-3.535h5.96
		h5.96v-3.939V6.165h5.556h5.557V25.66v19.496h-5.557h-5.556V33.135z"/>
	<path id="path4267" inkscape:connector-curvature="0" fill="#536DFE" d="M49.133,146.272v-3.535h3.939h3.939v-10.506v-10.506
		h-7.979h-7.98v-3.43v-3.431l3.99-0.055l3.99-0.055l0.058-1.97l0.058-1.97h9.488h9.488v19.496v19.496h-9.496h-9.495V146.272z"/>
	<path id="path4269" inkscape:connector-curvature="0" fill="#536DFE" d="M48.325,35.358V25.357h-6.062h-6.061v-3.535v-3.536h6.061
		h6.062v-5.96v-5.96h5.454h5.455v19.496v19.496H53.78h-5.454V35.358z"/>
	<path id="path4271" inkscape:connector-curvature="0" fill="#536DFE" d="M120.336,145.465v-3.536h3.939h3.939v-10.505v-10.506
		h-7.979h-7.98v-3.431v-3.43l3.99-0.055l3.99-0.055l0.058-1.971l0.058-1.97h9.488h9.488v19.496V149h-9.496h-9.495V145.465
		L120.336,145.465z"/>
	<path id="path4273" inkscape:connector-curvature="0" fill="#FFD42A" d="M112.406,84.952V72.831h-5.96h-5.96v-3.536V65.76h5.96
		h5.96V61.82v-3.939h7.172h7.172v5.556v5.556h-5.96h-5.96v4.546v4.546h5.96h5.96v9.495v9.495h-7.172h-7.172V84.952z"/>
	<path id="path4156" inkscape:connector-curvature="0" fill="none" stroke="#000000" d="M8.053,57.73v40h24v-24h-12v-8h12v-8H8.053"
		/>
	<path id="path4158" inkscape:connector-curvature="0" fill="none" stroke="#000000" d="M48.053,57.73v12h-12v8h12v20h12v-40H48.053
		"/>
	<path id="path4160" inkscape:connector-curvature="0" fill="#FF9800" d="M8.578,77.722V58.226h11.516H31.61v3.536v3.535h-6.062
		h-6.061v4.445v4.444h6.061h6.062v11.516v11.516H20.094H8.578V77.722z"/>
	<path id="path4162" inkscape:connector-curvature="0" fill="#536DFE" d="M48.58,87.238v-10h-6.062h-6.061v-3.536v-3.535h6.061
		h6.062v-5.96v-5.96h5.454h5.455v19.496v19.496h-5.455H48.58V87.238z"/>
	<path fill="none" d=""/>
	<path id="path4164" inkscape:connector-curvature="0" stroke="#000000" d="M78.182,25.486"/>
	<path fill="none" d=""/>
	<path id="path4982" inkscape:connector-curvature="0" stroke="#000000" d="M78.182,77.292"/>
	<path fill="none" d=""/>
	<path id="path5186" inkscape:connector-curvature="0" stroke="#000000" d="M85.965,129.585"/>
</g>
<g>
	<g>
		<line fill="none" stroke="#000000" x1="66.138" y1="25.445" x2="75.336" y2="25.445"/>
		<g>
			<path d="M74.205,25.445l-1.381-2.27l0.078-0.052l3.701,1.47c1.29,0.284,2.579,0.567,3.869,0.851
				c-1.29,0.284-2.579,0.567-3.869,0.852l-3.701,1.47l-0.078-0.038L74.205,25.445z"/>
		</g>
	</g>
</g>
<g>
	<g>
		<line fill="none" stroke="#000000" x1="66.138" y1="79.445" x2="75.336" y2="79.445"/>
		<g>
			<path d="M74.205,79.445l-1.381-2.27l0.078-0.052l3.701,1.47c1.29,0.284,2.579,0.567,3.869,0.851
				c-1.29,0.284-2.579,0.567-3.869,0.852l-3.701,1.47l-0.078-0.038L74.205,79.445z"/>
		</g>
	</g>
</g>
<g>
	<g>
		<line fill="none" stroke="#000000" x1="75.138" y1="133.445" x2="84.336" y2="133.445"/>
		<g>
			<path d="M83.205,133.445l-1.381-2.27l0.078-0.052l3.701,1.47c1.29,0.284,2.579,0.567,3.869,0.851
				c-1.29,0.284-2.579,0.567-3.869,0.852l-3.701,1.47l-0.078-0.038L83.205,133.445z"/>
		</g>
	</g>
</g>
</svg>
